<?xml version="1.0" encoding="UTF-8"?>
<svg width="226px" height="92px" viewBox="0 0 226 92" version="1.1" xmlns="http://www.w3.org/2000/svg" xmlns:xlink="http://www.w3.org/1999/xlink">
    <!-- Generator: Sketch 59.1 (86144) - https://sketch.com -->
    <title>Group 21</title>
    <desc>Created with Sketch.</desc>
    <g id="Page-1" stroke="none" stroke-width="1" fill="none" fill-rule="evenodd">
        <g id="Graphics" transform="translate(-787.000000, -1248.000000)">
            <g id="Group-21" transform="translate(789.000000, 1250.000000)">
                <g id="Group-7" transform="translate(25.000000, 36.000000) scale(-1, 1) translate(-25.000000, -36.000000) ">
                    <path d="M29.5,61 C29.5,71 32.0043445,71.5 40.5,71.5 C42,71.5 47,65 47,38 C47,17.0131795 42,2.48689958e-13 23.5,2.48689958e-13 C5,2.48689958e-13 0,17.0131795 0,38 C0,49.1464354 1.5,71.5 8.5,71.5 C19,71.5 16.5,73 20,61 C24.5,61 24.9005732,61.0988149 29.5,61 Z" id="Oval" stroke="#333333" stroke-width="4" fill="#00FCF1"></path>
                    <path d="M29.5,61 C29.5,71 32.0043445,71.5 40.5,71.5 C42,71.5 47,65 47,38 C47,17.0131795 42,0 23.5,0 C5,0 0,17.0131795 0,38 C0,49.1464354 1.5,71.5 8.5,71.5 C19,71.5 16.5,73 20,61 C24.5,61 24.9005732,61.0988149 29.5,61 Z" id="Oval" stroke="#333333" stroke-width="4" fill="#00FCF1"></path>
                    <path d="M23.5,59.0774312 C24.9401195,59.0774312 27.2920138,59.0937192 31.5,59 C31.4090351,69.5264642 32.227379,69.5 40,69.5 C40.5,69.5 44.2745189,64.3107471 44.9130798,43.627262 C40.1928725,56.7223372 32.8894042,53 27.5,53 C2,53 6.66779879,38.3536411 5.95043951,13.2043538 C3.03701956,19.6378738 2,28.2606196 2,37.7377254 C2,48.3093544 3.5,69.5 8.5,69.5 C18.106383,69.5 14.7788069,71.8896252 18.5,59 C22.4609472,59.1997724 22.1136377,59.0774312 23.5,59.0774312 Z" id="Oval" fill-opacity="0.196623689" fill="#000000"></path>
                    <path d="M32,39 C47.5454545,39 50,33.1390004 50,25.9090909 C50,18.6791815 41.9411255,15 32,15 C22.0588745,15 14,18.6791815 14,25.9090909 C14,33.1390004 16.4545455,39 32,39 Z" id="Oval" stroke="#333333" stroke-width="4" fill="#D8D8D8"></path>
                    <path d="M31.5,37 C43,37 45.7489617,34.351475 47.3,31 C44,32 33.8374799,35.0815771 26.5,32.5 C19.7088563,30.1106427 19.5,26 18.7751426,20.4598946 C17.0258073,21.8954542 16,23.7744869 16,26.0909091 C16,32.1158336 18.1136364,37 31.5,37 Z" id="Oval" fill="#AEAEAE"></path>
                </g>
                <g id="Group-7" transform="translate(172.000000, 0.000000)">
                    <path d="M29.5,61 C29.5,71 32.0043445,71.5 40.5,71.5 C42,71.5 47,65 47,38 C47,17.0131795 42,2.48689958e-13 23.5,2.48689958e-13 C5,2.48689958e-13 0,17.0131795 0,38 C0,49.1464354 1.5,71.5 8.5,71.5 C19,71.5 16.5,73 20,61 C24.5,61 24.9005732,61.0988149 29.5,61 Z" id="Oval" stroke="#333333" stroke-width="4" fill="#00FCF1"></path>
                    <path d="M29.5,61 C29.5,71 32.0043445,71.5 40.5,71.5 C42,71.5 47,65 47,38 C47,17.0131795 42,0 23.5,0 C5,0 0,17.0131795 0,38 C0,49.1464354 1.5,71.5 8.5,71.5 C19,71.5 16.5,73 20,61 C24.5,61 24.9005732,61.0988149 29.5,61 Z" id="Oval" stroke="#333333" stroke-width="4" fill="#CD5B5B"></path>
                    <path d="M23.5,59.0774312 C24.9401195,59.0774312 27.2920138,59.0937192 31.5,59 C31.4090351,69.5264642 32.227379,69.5 40,69.5 C40.5,69.5 44.2745189,64.3107471 44.9130798,43.627262 C40.1928725,56.7223372 32.8894042,53 27.5,53 C2,53 6.66779879,38.3536411 5.95043951,13.2043538 C3.03701956,19.6378738 2,28.2606196 2,37.7377254 C2,48.3093544 3.5,69.5 8.5,69.5 C18.106383,69.5 14.7788069,71.8896252 18.5,59 C22.4609472,59.1997724 22.1136377,59.0774312 23.5,59.0774312 Z" id="Oval" fill-opacity="0.196623689" fill="#000000"></path>
                    <path d="M32,39 C47.5454545,39 50,33.1390004 50,25.9090909 C50,18.6791815 41.9411255,15 32,15 C22.0588745,15 14,18.6791815 14,25.9090909 C14,33.1390004 16.4545455,39 32,39 Z" id="Oval" stroke="#333333" stroke-width="4" fill="#D8D8D8"></path>
                    <path d="M31.5,37 C43,37 45.7489617,34.351475 47.3,31 C44,32 33.8374799,35.0815771 26.5,32.5 C19.7088563,30.1106427 19.5,26 18.7751426,20.4598946 C17.0258073,21.8954542 16,23.7744869 16,26.0909091 C16,32.1158336 18.1136364,37 31.5,37 Z" id="Oval" fill="#AEAEAE"></path>
                </g>
                <g id="Group-7" transform="translate(130.000000, 9.000000)">
                    <path d="M29.5,61 C29.5,71 32.0043445,71.5 40.5,71.5 C42,71.5 47,65 47,38 C47,17.0131795 42,2.48689958e-13 23.5,2.48689958e-13 C5,2.48689958e-13 0,17.0131795 0,38 C0,49.1464354 1.5,71.5 8.5,71.5 C19,71.5 16.5,73 20,61 C24.5,61 24.9005732,61.0988149 29.5,61 Z" id="Oval" stroke="#333333" stroke-width="4" fill="#00FCF1"></path>
                    <path d="M29.5,61 C29.5,71 32.0043445,71.5 40.5,71.5 C42,71.5 47,65 47,38 C47,17.0131795 42,0 23.5,0 C5,0 0,17.0131795 0,38 C0,49.1464354 1.5,71.5 8.5,71.5 C19,71.5 16.5,73 20,61 C24.5,61 24.9005732,61.0988149 29.5,61 Z" id="Oval" stroke="#333333" stroke-width="4" fill="#DED453"></path>
                    <path d="M23.5,59.0774312 C24.9401195,59.0774312 27.2920138,59.0937192 31.5,59 C31.4090351,69.5264642 32.227379,69.5 40,69.5 C40.5,69.5 44.2745189,64.3107471 44.9130798,43.627262 C40.1928725,56.7223372 32.8894042,53 27.5,53 C2,53 6.66779879,38.3536411 5.95043951,13.2043538 C3.03701956,19.6378738 2,28.2606196 2,37.7377254 C2,48.3093544 3.5,69.5 8.5,69.5 C18.106383,69.5 14.7788069,71.8896252 18.5,59 C22.4609472,59.1997724 22.1136377,59.0774312 23.5,59.0774312 Z" id="Oval" fill-opacity="0.196623689" fill="#000000"></path>
                    <path d="M32,39 C47.5454545,39 50,33.1390004 50,25.9090909 C50,18.6791815 41.9411255,15 32,15 C22.0588745,15 14,18.6791815 14,25.9090909 C14,33.1390004 16.4545455,39 32,39 Z" id="Oval" stroke="#333333" stroke-width="4" fill="#D8D8D8"></path>
                    <path d="M31.5,37 C43,37 45.7489617,34.351475 47.3,31 C44,32 33.8374799,35.0815771 26.5,32.5 C19.7088563,30.1106427 19.5,26 18.7751426,20.4598946 C17.0258073,21.8954542 16,23.7744869 16,26.0909091 C16,32.1158336 18.1136364,37 31.5,37 Z" id="Oval" fill="#AEAEAE"></path>
                </g>
                <g id="Group-7" transform="translate(69.000000, 45.000000) scale(-1, 1) translate(-69.000000, -45.000000) translate(44.000000, 9.000000)">
                    <path d="M29.5,61 C29.5,71 32.0043445,71.5 40.5,71.5 C42,71.5 47,65 47,38 C47,17.0131795 42,2.48689958e-13 23.5,2.48689958e-13 C5,2.48689958e-13 0,17.0131795 0,38 C0,49.1464354 1.5,71.5 8.5,71.5 C19,71.5 16.5,73 20,61 C24.5,61 24.9005732,61.0988149 29.5,61 Z" id="Oval" stroke="#333333" stroke-width="4" fill="#00FCA0"></path>
                    <path d="M23.5,59.0774312 C24.9401195,59.0774312 27.2920138,59.0937192 31.5,59 C31.4090351,69.5264642 32.227379,69.5 40,69.5 C40.5,69.5 44.2745189,64.3107471 44.9130798,43.627262 C40.1928725,56.7223372 32.8894042,53 27.5,53 C2,53 6.66779879,38.3536411 5.95043951,13.2043538 C3.03701956,19.6378738 2,28.2606196 2,37.7377254 C2,48.3093544 3.5,69.5 8.5,69.5 C18.106383,69.5 14.7788069,71.8896252 18.5,59 C22.4609472,59.1997724 22.1136377,59.0774312 23.5,59.0774312 Z" id="Oval" fill-opacity="0.196623689" fill="#000000"></path>
                    <path d="M32,39 C47.5454545,39 50,33.1390004 50,25.9090909 C50,18.6791815 41.9411255,15 32,15 C22.0588745,15 14,18.6791815 14,25.9090909 C14,33.1390004 16.4545455,39 32,39 Z" id="Oval" stroke="#333333" stroke-width="4" fill="#D8D8D8"></path>
                    <path d="M31.5,37 C43,37 45.7489617,34.351475 47.3,31 C44,32 33.8374799,35.0815771 26.5,32.5 C19.7088563,30.1106427 19.5,26 18.7751426,20.4598946 C17.0258073,21.8954542 16,23.7744869 16,26.0909091 C16,32.1158336 18.1136364,37 31.5,37 Z" id="Oval" fill="#AEAEAE"></path>
                </g>
                <g id="Group-7" transform="translate(87.000000, 16.000000)">
                    <path d="M29.5,61 C29.5,71 32.0043445,71.5 40.5,71.5 C42,71.5 47,65 47,38 C47,17.0131795 42,2.48689958e-13 23.5,2.48689958e-13 C5,2.48689958e-13 0,17.0131795 0,38 C0,49.1464354 1.5,71.5 8.5,71.5 C19,71.5 16.5,73 20,61 C24.5,61 24.9005732,61.0988149 29.5,61 Z" id="Oval" stroke="#333333" stroke-width="4" fill="#00FCF1"></path>
                    <path d="M29.5,61 C29.5,71 32.0043445,71.5 40.5,71.5 C42,71.5 47,65 47,38 C47,17.0131795 42,0 23.5,0 C5,0 0,17.0131795 0,38 C0,49.1464354 1.5,71.5 8.5,71.5 C19,71.5 16.5,73 20,61 C24.5,61 24.9005732,61.0988149 29.5,61 Z" id="Oval" stroke="#333333" stroke-width="4" fill="#636363"></path>
                    <path d="M23.5,59.0774312 C24.9401195,59.0774312 27.2920138,59.0937192 31.5,59 C31.4090351,69.5264642 32.227379,69.5 40,69.5 C40.5,69.5 44.2745189,64.3107471 44.9130798,43.627262 C40.1928725,56.7223372 32.8894042,53 27.5,53 C2,53 6.66779879,38.3536411 5.95043951,13.2043538 C3.03701956,19.6378738 2,28.2606196 2,37.7377254 C2,48.3093544 3.5,69.5 8.5,69.5 C18.106383,69.5 14.7788069,71.8896252 18.5,59 C22.4609472,59.1997724 22.1136377,59.0774312 23.5,59.0774312 Z" id="Oval" fill-opacity="0.196623689" fill="#000000"></path>
                    <path d="M24,39 C39.5454545,39 42,33.1390004 42,25.9090909 C42,18.6791815 33.9411255,15 24,15 C14.0588745,15 6,18.6791815 6,25.9090909 C6,33.1390004 8.45454545,39 24,39 Z" id="Oval" stroke="#333333" stroke-width="4" fill="#D8D8D8"></path>
                    <path d="M23.5,37 C35,37 37.7489617,34.351475 39.3,31 C36,32 25.8374799,35.0815771 18.5,32.5 C11.7088563,30.1106427 11.5,26 10.7751426,20.4598946 C9.02580734,21.8954542 8,23.7744869 8,26.0909091 C8,32.1158336 10.1136364,37 23.5,37 Z" id="Oval" fill="#AEAEAE"></path>
                </g>
            </g>
        </g>
    </g>
</svg>