<?xml version="1.0" encoding="UTF-8"?>
<svg width="149px" height="35px" viewBox="0 0 149 35" version="1.1" xmlns="http://www.w3.org/2000/svg" xmlns:xlink="http://www.w3.org/1999/xlink">
    <!-- Generator: Sketch 59.1 (86144) - https://sketch.com -->
    <title>Group 12</title>
    <desc>Created with Sketch.</desc>
    <g id="Page-1" stroke="none" stroke-width="1" fill="none" fill-rule="evenodd">
        <g id="Graphics" transform="translate(-1475.000000, -652.000000)" stroke="#333333" stroke-width="4">
            <g id="Group-12" transform="translate(1477.000000, 654.000000)">
                <rect id="Rectangle" fill="#986B3E" x="0" y="0" width="145" height="31" rx="4"></rect>
                <path d="M4,0 L141,0 C143.209139,-4.05812251e-16 145,1.790861 145,4 L145,11 L145,11 L129.964528,18.7602434 C129.673524,18.9104391 129.327419,18.9086338 129.037998,18.7554106 L112.906854,10.2153935 C112.648642,10.0786927 112.34356,10.0617527 112.0718,10.1690262 L93.8270076,17.370918 C93.615352,17.4544663 93.3815314,17.4633312 93.1641574,17.3960487 L72.869401,11.1143384 C72.6317098,11.0407673 72.3751282,11.0584506 72.1497772,11.1639341 L49.4604213,21.7844837 C49.1710938,21.9199135 48.8344742,21.9089608 48.5545624,21.7550093 L29.4296282,11.2362955 C29.1586215,11.0872418 28.8338948,11.0719789 28.550102,11.1949558 L14.4117256,17.3215856 C14.1498213,17.4350774 13.8519008,17.4312397 13.5930069,17.3110389 L0,11 L0,11 L0,4 C-2.705415e-16,1.790861 1.790861,4.05812251e-16 4,0 Z" id="Rectangle" fill="#6EB75E"></path>
            </g>
        </g>
    </g>
</svg>